<svg xmlns="http://www.w3.org/2000/svg" xmlns:xlink="http://www.w3.org/1999/xlink" width="500" zoomAndPan="magnify" viewBox="0 0 375 374.999991" height="500" preserveAspectRatio="xMidYMid meet" version="1.0"><defs><clipPath id="36ecde35cc"><path d="M 31.394531 31.394531 L 343.605469 31.394531 L 343.605469 343.605469 L 31.394531 343.605469 Z M 31.394531 31.394531 " clip-rule="nonzero"/></clipPath><clipPath id="9099ef2a59"><path d="M 187.5 31.394531 C 101.285156 31.394531 31.394531 101.285156 31.394531 187.5 C 31.394531 273.714844 101.285156 343.605469 187.5 343.605469 C 273.714844 343.605469 343.605469 273.714844 343.605469 187.5 C 343.605469 101.285156 273.714844 31.394531 187.5 31.394531 Z M 187.5 31.394531 " clip-rule="nonzero"/></clipPath><radialGradient gradientTransform="matrix(1, 0, 0, 1, 31.395352, 31.395359)" gradientUnits="userSpaceOnUse" r="220.764913" cx="156.104657" id="cf1513e93f" cy="156.104657" fx="156.104657" fy="156.104657"><stop stop-opacity="1" stop-color="rgb(49.533081%, 60.98175%, 94.978333%)" offset="0"/><stop stop-opacity="1" stop-color="rgb(49.784851%, 61.325073%, 95.127869%)" offset="0.03125"/><stop stop-opacity="1" stop-color="rgb(50.021362%, 61.643982%, 95.266724%)" offset="0.0585938"/><stop stop-opacity="1" stop-color="rgb(50.256348%, 61.964417%, 95.407104%)" offset="0.0859375"/><stop stop-opacity="1" stop-color="rgb(50.491333%, 62.284851%, 95.545959%)" offset="0.113281"/><stop stop-opacity="1" stop-color="rgb(50.709534%, 62.580872%, 95.675659%)" offset="0.140625"/><stop stop-opacity="1" stop-color="rgb(50.91095%, 62.85553%, 95.796204%)" offset="0.164062"/><stop stop-opacity="1" stop-color="rgb(51.112366%, 63.130188%, 95.915222%)" offset="0.1875"/><stop stop-opacity="1" stop-color="rgb(51.313782%, 63.404846%, 96.034241%)" offset="0.210938"/><stop stop-opacity="1" stop-color="rgb(51.515198%, 63.677979%, 96.154785%)" offset="0.234375"/><stop stop-opacity="1" stop-color="rgb(51.699829%, 63.929749%, 96.263123%)" offset="0.257812"/><stop stop-opacity="1" stop-color="rgb(51.867676%, 64.15863%, 96.362305%)" offset="0.277344"/><stop stop-opacity="1" stop-color="rgb(52.037048%, 64.387512%, 96.463013%)" offset="0.296875"/><stop stop-opacity="1" stop-color="rgb(52.204895%, 64.614868%, 96.562195%)" offset="0.316406"/><stop stop-opacity="1" stop-color="rgb(52.372742%, 64.84375%, 96.661377%)" offset="0.335938"/><stop stop-opacity="1" stop-color="rgb(52.540588%, 65.072632%, 96.762085%)" offset="0.355469"/><stop stop-opacity="1" stop-color="rgb(52.708435%, 65.301514%, 96.861267%)" offset="0.375"/><stop stop-opacity="1" stop-color="rgb(52.859497%, 65.505981%, 96.951294%)" offset="0.394531"/><stop stop-opacity="1" stop-color="rgb(52.993774%, 65.689087%, 97.03064%)" offset="0.410156"/><stop stop-opacity="1" stop-color="rgb(53.128052%, 65.872192%, 97.109985%)" offset="0.425781"/><stop stop-opacity="1" stop-color="rgb(53.329468%, 66.146851%, 97.229004%)" offset="0.441406"/><stop stop-opacity="1" stop-color="rgb(53.598022%, 66.511536%, 97.389221%)" offset="0.472656"/><stop stop-opacity="1" stop-color="rgb(53.849792%, 66.854858%, 97.538757%)" offset="0.503906"/><stop stop-opacity="1" stop-color="rgb(54.084778%, 67.175293%, 97.677612%)" offset="0.53125"/><stop stop-opacity="1" stop-color="rgb(54.321289%, 67.494202%, 97.817993%)" offset="0.558594"/><stop stop-opacity="1" stop-color="rgb(54.53949%, 67.791748%, 97.947693%)" offset="0.585938"/><stop stop-opacity="1" stop-color="rgb(54.740906%, 68.066406%, 98.066711%)" offset="0.609375"/><stop stop-opacity="1" stop-color="rgb(54.925537%, 68.31665%, 98.176575%)" offset="0.632812"/><stop stop-opacity="1" stop-color="rgb(55.093384%, 68.545532%, 98.275757%)" offset="0.652344"/><stop stop-opacity="1" stop-color="rgb(55.26123%, 68.774414%, 98.374939%)" offset="0.671875"/><stop stop-opacity="1" stop-color="rgb(55.412292%, 68.980408%, 98.464966%)" offset="0.691406"/><stop stop-opacity="1" stop-color="rgb(55.54657%, 69.163513%, 98.544312%)" offset="0.707031"/><stop stop-opacity="1" stop-color="rgb(55.747986%, 69.436646%, 98.664856%)" offset="0.722656"/><stop stop-opacity="1" stop-color="rgb(55.999756%, 69.779968%, 98.812866%)" offset="0.753906"/><stop stop-opacity="1" stop-color="rgb(56.234741%, 70.098877%, 98.953247%)" offset="0.78125"/><stop stop-opacity="1" stop-color="rgb(56.454468%, 70.396423%, 99.082947%)" offset="0.808594"/><stop stop-opacity="1" stop-color="rgb(56.639099%, 70.648193%, 99.191284%)" offset="0.832031"/><stop stop-opacity="1" stop-color="rgb(56.790161%, 70.854187%, 99.281311%)" offset="0.851562"/><stop stop-opacity="1" stop-color="rgb(56.991577%, 71.127319%, 99.401855%)" offset="0.867188"/><stop stop-opacity="1" stop-color="rgb(57.226562%, 71.447754%, 99.54071%)" offset="0.898438"/><stop stop-opacity="1" stop-color="rgb(57.411194%, 71.699524%, 99.650574%)" offset="0.921875"/><stop stop-opacity="1" stop-color="rgb(57.61261%, 71.972656%, 99.769592%)" offset="0.941406"/><stop stop-opacity="1" stop-color="rgb(57.86438%, 72.315979%, 99.919128%)" offset="0.96875"/><stop stop-opacity="1" stop-color="rgb(57.998657%, 72.499084%, 100%)" offset="1"/></radialGradient><clipPath id="a8e2bbc0b7"><path d="M 79.65625 79.65625 L 295.34375 79.65625 L 295.34375 295.34375 L 79.65625 295.34375 Z M 79.65625 79.65625 " clip-rule="nonzero"/></clipPath><clipPath id="6867bf6a40"><path d="M 187.5 79.65625 C 127.9375 79.65625 79.65625 127.9375 79.65625 187.5 C 79.65625 247.0625 127.9375 295.34375 187.5 295.34375 C 247.0625 295.34375 295.34375 247.0625 295.34375 187.5 C 295.34375 127.9375 247.0625 79.65625 187.5 79.65625 Z M 187.5 79.65625 " clip-rule="nonzero"/></clipPath><clipPath id="ccd6532813"><path d="M 92.097656 194.453125 L 118.371094 194.453125 L 118.371094 220.726562 L 92.097656 220.726562 Z M 92.097656 194.453125 " clip-rule="nonzero"/></clipPath><clipPath id="0183784b50"><path d="M 105.234375 194.453125 C 97.980469 194.453125 92.097656 200.335938 92.097656 207.589844 C 92.097656 214.84375 97.980469 220.726562 105.234375 220.726562 C 112.488281 220.726562 118.371094 214.84375 118.371094 207.589844 C 118.371094 200.335938 112.488281 194.453125 105.234375 194.453125 Z M 105.234375 194.453125 " clip-rule="nonzero"/></clipPath><clipPath id="03d9edd034"><path d="M 201 210 L 323 210 L 323 332 L 201 332 Z M 201 210 " clip-rule="nonzero"/></clipPath><clipPath id="e7a3be2285"><path d="M 177.554688 255.207031 L 277.25 186.734375 L 345.726562 286.433594 L 246.027344 354.90625 Z M 177.554688 255.207031 " clip-rule="nonzero"/></clipPath><clipPath id="4bb0fbdaa2"><path d="M 227.402344 220.972656 C 199.871094 239.878906 192.882812 277.527344 211.789062 305.058594 C 230.699219 332.589844 268.34375 339.578125 295.875 320.671875 C 323.40625 301.761719 330.398438 264.117188 311.488281 236.585938 C 292.578125 209.054688 254.933594 202.0625 227.402344 220.972656 Z M 227.402344 220.972656 " clip-rule="nonzero"/></clipPath><clipPath id="171c33133a"><path d="M 170 199 L 237 199 L 237 267 L 170 267 Z M 170 199 " clip-rule="nonzero"/></clipPath><clipPath id="b09e8c571f"><path d="M 157.394531 224.425781 L 212.269531 186.734375 L 249.960938 241.613281 L 195.082031 279.300781 Z M 157.394531 224.425781 " clip-rule="nonzero"/></clipPath><clipPath id="e9d8ebfa4c"><path d="M 184.832031 205.578125 C 169.679688 215.988281 165.832031 236.707031 176.238281 251.863281 C 186.648438 267.015625 207.367188 270.863281 222.523438 260.457031 C 237.675781 250.050781 241.523438 229.328125 231.117188 214.171875 C 220.707031 199.019531 199.988281 195.171875 184.832031 205.578125 Z M 184.832031 205.578125 " clip-rule="nonzero"/></clipPath><clipPath id="0165480c82"><path d="M 197 284 L 264 284 L 264 351 L 197 351 Z M 197 284 " clip-rule="nonzero"/></clipPath><clipPath id="2c4a77d61c"><path d="M 184.054688 308.8125 L 238.933594 271.125 L 276.621094 326 L 221.746094 363.691406 Z M 184.054688 308.8125 " clip-rule="nonzero"/></clipPath><clipPath id="17de30b336"><path d="M 211.496094 289.96875 C 196.339844 300.375 192.492188 321.097656 202.902344 336.25 C 213.308594 351.40625 234.03125 355.253906 249.183594 344.84375 C 264.339844 334.4375 268.1875 313.714844 257.777344 298.5625 C 247.371094 283.410156 226.648438 279.5625 211.496094 289.96875 Z M 211.496094 289.96875 " clip-rule="nonzero"/></clipPath><clipPath id="06c7abe831"><path d="M 119 235 L 220 235 L 220 336 L 119 336 Z M 119 235 " clip-rule="nonzero"/></clipPath><clipPath id="41b85edf9a"><path d="M 99.695312 272.59375 L 182.007812 216.058594 L 238.542969 298.375 L 156.226562 354.910156 Z M 99.695312 272.59375 " clip-rule="nonzero"/></clipPath><clipPath id="49f76b07ca"><path d="M 140.851562 244.328125 C 118.121094 259.9375 112.347656 291.019531 127.960938 313.75 C 143.570312 336.480469 174.65625 342.253906 197.386719 326.640625 C 220.117188 311.03125 225.886719 279.949219 210.277344 257.21875 C 194.664062 234.488281 163.582031 228.714844 140.851562 244.328125 Z M 140.851562 244.328125 " clip-rule="nonzero"/></clipPath><clipPath id="c9ac0b2db2"><path d="M 89 252 L 157 252 L 157 319 L 89 319 Z M 89 252 " clip-rule="nonzero"/></clipPath><clipPath id="f63e8a7ebc"><path d="M 76.554688 276.886719 L 131.429688 239.199219 L 169.121094 294.074219 L 114.242188 331.765625 Z M 76.554688 276.886719 " clip-rule="nonzero"/></clipPath><clipPath id="3ac97115d4"><path d="M 103.992188 258.042969 C 88.835938 268.449219 84.988281 289.171875 95.398438 304.328125 C 105.804688 319.480469 126.527344 323.328125 141.679688 312.921875 C 156.835938 302.511719 160.683594 281.792969 150.273438 266.636719 C 139.867188 251.484375 119.144531 247.636719 103.992188 258.042969 Z M 103.992188 258.042969 " clip-rule="nonzero"/></clipPath><clipPath id="584085f4a1"><path d="M 274 205 L 342 205 L 342 273 L 274 273 Z M 274 205 " clip-rule="nonzero"/></clipPath><clipPath id="16fb295aac"><path d="M 261.640625 230.605469 L 316.515625 192.914062 L 354.207031 247.792969 L 299.328125 285.480469 Z M 261.640625 230.605469 " clip-rule="nonzero"/></clipPath><clipPath id="9c4ca0be4e"><path d="M 289.078125 211.761719 C 273.921875 222.167969 270.074219 242.890625 280.484375 258.042969 C 290.890625 273.199219 311.613281 277.042969 326.765625 266.636719 C 341.921875 256.230469 345.769531 235.507812 335.359375 220.355469 C 324.953125 205.199219 304.230469 201.351562 289.078125 211.761719 Z M 289.078125 211.761719 " clip-rule="nonzero"/></clipPath><clipPath id="0117f4c2f2"><path d="M 74 279 L 120 279 L 120 325 L 74 325 Z M 74 279 " clip-rule="nonzero"/></clipPath><clipPath id="8dd5199be8"><path d="M 65.875 296.222656 L 102.859375 270.820312 L 128.257812 307.804688 L 91.273438 333.207031 Z M 65.875 296.222656 " clip-rule="nonzero"/></clipPath><clipPath id="ed1cd66dee"><path d="M 84.367188 283.523438 C 74.152344 290.535156 71.558594 304.5 78.574219 314.714844 C 85.589844 324.929688 99.554688 327.519531 109.765625 320.507812 C 119.980469 313.492188 122.574219 299.527344 115.558594 289.3125 C 108.542969 279.101562 94.578125 276.507812 84.367188 283.523438 Z M 84.367188 283.523438 " clip-rule="nonzero"/></clipPath></defs><g clip-path="url(#36ecde35cc)"><g clip-path="url(#9099ef2a59)"><path fill="url(#cf1513e93f)" d="M 31.394531 31.394531 L 31.394531 343.605469 L 343.605469 343.605469 L 343.605469 31.394531 Z M 31.394531 31.394531 " fill-rule="nonzero"/></g></g><g clip-path="url(#a8e2bbc0b7)"><g clip-path="url(#6867bf6a40)"><path fill="#dbc473" d="M 79.65625 79.65625 L 295.34375 79.65625 L 295.34375 295.34375 L 79.65625 295.34375 Z M 79.65625 79.65625 " fill-opacity="1" fill-rule="nonzero"/></g></g><path stroke-linecap="round" transform="matrix(0.455017, -0.596205, 0.596205, 0.455017, 79.924965, 171.769998)" fill="none" stroke-linejoin="miter" d="M 21.282244 28.829264 C 55.398438 10.372677 89.508126 10.390755 123.62275 28.881318 " stroke="#fcedb7" stroke-width="30" stroke-opacity="1" stroke-miterlimit="4"/><g clip-path="url(#ccd6532813)"><g clip-path="url(#0183784b50)"><path fill="#fcedb7" d="M 92.097656 194.453125 L 118.371094 194.453125 L 118.371094 220.726562 L 92.097656 220.726562 Z M 92.097656 194.453125 " fill-opacity="1" fill-rule="nonzero"/></g></g><g clip-path="url(#03d9edd034)"><g clip-path="url(#e7a3be2285)"><g clip-path="url(#4bb0fbdaa2)"><path fill="#ececec" d="M 177.554688 255.207031 L 277.25 186.734375 L 345.726562 286.433594 L 246.027344 354.90625 Z M 177.554688 255.207031 " fill-opacity="1" fill-rule="nonzero"/></g></g></g><g clip-path="url(#171c33133a)"><g clip-path="url(#b09e8c571f)"><g clip-path="url(#e9d8ebfa4c)"><path fill="#ececec" d="M 157.394531 224.425781 L 212.269531 186.734375 L 249.960938 241.613281 L 195.082031 279.300781 Z M 157.394531 224.425781 " fill-opacity="1" fill-rule="nonzero"/></g></g></g><g clip-path="url(#0165480c82)"><g clip-path="url(#2c4a77d61c)"><g clip-path="url(#17de30b336)"><path fill="#ececec" d="M 184.054688 308.8125 L 238.933594 271.125 L 276.621094 326 L 221.746094 363.691406 Z M 184.054688 308.8125 " fill-opacity="1" fill-rule="nonzero"/></g></g></g><g clip-path="url(#06c7abe831)"><g clip-path="url(#41b85edf9a)"><g clip-path="url(#49f76b07ca)"><path fill="#ececec" d="M 99.695312 272.59375 L 182.007812 216.058594 L 238.542969 298.375 L 156.226562 354.910156 Z M 99.695312 272.59375 " fill-opacity="1" fill-rule="nonzero"/></g></g></g><g clip-path="url(#c9ac0b2db2)"><g clip-path="url(#f63e8a7ebc)"><g clip-path="url(#3ac97115d4)"><path fill="#ececec" d="M 76.554688 276.886719 L 131.429688 239.199219 L 169.121094 294.074219 L 114.242188 331.765625 Z M 76.554688 276.886719 " fill-opacity="1" fill-rule="nonzero"/></g></g></g><g clip-path="url(#584085f4a1)"><g clip-path="url(#16fb295aac)"><g clip-path="url(#9c4ca0be4e)"><path fill="#ececec" d="M 261.640625 230.605469 L 316.515625 192.914062 L 354.207031 247.792969 L 299.328125 285.480469 Z M 261.640625 230.605469 " fill-opacity="1" fill-rule="nonzero"/></g></g></g><g clip-path="url(#0117f4c2f2)"><g clip-path="url(#8dd5199be8)"><g clip-path="url(#ed1cd66dee)"><path fill="#ececec" d="M 65.875 296.222656 L 102.859375 270.820312 L 128.257812 307.804688 L 91.273438 333.207031 Z M 65.875 296.222656 " fill-opacity="1" fill-rule="nonzero"/></g></g></g></svg>