<svg xmlns="http://www.w3.org/2000/svg" xmlns:xlink="http://www.w3.org/1999/xlink" width="500" zoomAndPan="magnify" viewBox="0 0 375 374.999991" height="500" preserveAspectRatio="xMidYMid meet" version="1.0"><defs><clipPath id="f22f766cc3"><path d="M 32.085938 31.394531 L 344.296875 31.394531 L 344.296875 343.605469 L 32.085938 343.605469 Z M 32.085938 31.394531 " clip-rule="nonzero"/></clipPath><clipPath id="974a994388"><path d="M 188.191406 31.394531 C 101.976562 31.394531 32.085938 101.285156 32.085938 187.5 C 32.085938 273.714844 101.976562 343.605469 188.191406 343.605469 C 274.40625 343.605469 344.296875 273.714844 344.296875 187.5 C 344.296875 101.285156 274.40625 31.394531 188.191406 31.394531 Z M 188.191406 31.394531 " clip-rule="nonzero"/></clipPath><radialGradient gradientTransform="matrix(1, 0, 0, 1, 32.087151, 31.395359)" gradientUnits="userSpaceOnUse" r="220.764913" cx="156.104657" id="88741a750f" cy="156.104657" fx="156.104657" fy="156.104657"><stop stop-opacity="1" stop-color="rgb(0.143433%, 0.141907%, 0.154114%)" offset="0"/><stop stop-opacity="1" stop-color="rgb(0.358582%, 0.35553%, 0.386047%)" offset="0.0078125"/><stop stop-opacity="1" stop-color="rgb(0.50354%, 0.497437%, 0.540161%)" offset="0.0117188"/><stop stop-opacity="1" stop-color="rgb(0.646973%, 0.640869%, 0.694275%)" offset="0.015625"/><stop stop-opacity="1" stop-color="rgb(0.791931%, 0.782776%, 0.849915%)" offset="0.0195312"/><stop stop-opacity="1" stop-color="rgb(0.935364%, 0.926208%, 1.004028%)" offset="0.0234375"/><stop stop-opacity="1" stop-color="rgb(1.080322%, 1.068115%, 1.159668%)" offset="0.0273438"/><stop stop-opacity="1" stop-color="rgb(1.223755%, 1.210022%, 1.313782%)" offset="0.03125"/><stop stop-opacity="1" stop-color="rgb(1.368713%, 1.353455%, 1.467896%)" offset="0.0351562"/><stop stop-opacity="1" stop-color="rgb(1.512146%, 1.495361%, 1.623535%)" offset="0.0390625"/><stop stop-opacity="1" stop-color="rgb(1.657104%, 1.638794%, 1.777649%)" offset="0.0429688"/><stop stop-opacity="1" stop-color="rgb(1.800537%, 1.780701%, 1.931763%)" offset="0.046875"/><stop stop-opacity="1" stop-color="rgb(1.945496%, 1.924133%, 2.087402%)" offset="0.0507812"/><stop stop-opacity="1" stop-color="rgb(2.088928%, 2.06604%, 2.241516%)" offset="0.0546875"/><stop stop-opacity="1" stop-color="rgb(2.232361%, 2.209473%, 2.397156%)" offset="0.0585938"/><stop stop-opacity="1" stop-color="rgb(2.377319%, 2.351379%, 2.55127%)" offset="0.0625"/><stop stop-opacity="1" stop-color="rgb(2.520752%, 2.493286%, 2.705383%)" offset="0.0664062"/><stop stop-opacity="1" stop-color="rgb(2.66571%, 2.636719%, 2.861023%)" offset="0.0703125"/><stop stop-opacity="1" stop-color="rgb(2.809143%, 2.778625%, 3.015137%)" offset="0.0742188"/><stop stop-opacity="1" stop-color="rgb(2.954102%, 2.922058%, 3.16925%)" offset="0.078125"/><stop stop-opacity="1" stop-color="rgb(3.097534%, 3.063965%, 3.32489%)" offset="0.0820312"/><stop stop-opacity="1" stop-color="rgb(3.242493%, 3.207397%, 3.479004%)" offset="0.0859375"/><stop stop-opacity="1" stop-color="rgb(3.385925%, 3.349304%, 3.634644%)" offset="0.0898438"/><stop stop-opacity="1" stop-color="rgb(3.530884%, 3.492737%, 3.788757%)" offset="0.09375"/><stop stop-opacity="1" stop-color="rgb(3.674316%, 3.634644%, 3.942871%)" offset="0.0976562"/><stop stop-opacity="1" stop-color="rgb(3.819275%, 3.77655%, 4.098511%)" offset="0.101562"/><stop stop-opacity="1" stop-color="rgb(3.962708%, 3.919983%, 4.252625%)" offset="0.105469"/><stop stop-opacity="1" stop-color="rgb(4.10614%, 4.06189%, 4.406738%)" offset="0.109375"/><stop stop-opacity="1" stop-color="rgb(4.251099%, 4.205322%, 4.562378%)" offset="0.113281"/><stop stop-opacity="1" stop-color="rgb(4.394531%, 4.347229%, 4.716492%)" offset="0.117188"/><stop stop-opacity="1" stop-color="rgb(4.53949%, 4.490662%, 4.872131%)" offset="0.121094"/><stop stop-opacity="1" stop-color="rgb(4.682922%, 4.632568%, 5.026245%)" offset="0.125"/><stop stop-opacity="1" stop-color="rgb(4.827881%, 4.774475%, 5.180359%)" offset="0.128906"/><stop stop-opacity="1" stop-color="rgb(4.971313%, 4.917908%, 5.335999%)" offset="0.132812"/><stop stop-opacity="1" stop-color="rgb(5.116272%, 5.059814%, 5.490112%)" offset="0.136719"/><stop stop-opacity="1" stop-color="rgb(5.259705%, 5.203247%, 5.644226%)" offset="0.140625"/><stop stop-opacity="1" stop-color="rgb(5.404663%, 5.345154%, 5.799866%)" offset="0.144531"/><stop stop-opacity="1" stop-color="rgb(5.548096%, 5.488586%, 5.953979%)" offset="0.148438"/><stop stop-opacity="1" stop-color="rgb(5.693054%, 5.630493%, 6.109619%)" offset="0.152344"/><stop stop-opacity="1" stop-color="rgb(5.836487%, 5.773926%, 6.263733%)" offset="0.15625"/><stop stop-opacity="1" stop-color="rgb(5.981445%, 5.915833%, 6.417847%)" offset="0.160156"/><stop stop-opacity="1" stop-color="rgb(6.124878%, 6.057739%, 6.573486%)" offset="0.164062"/><stop stop-opacity="1" stop-color="rgb(6.268311%, 6.201172%, 6.7276%)" offset="0.167969"/><stop stop-opacity="1" stop-color="rgb(6.413269%, 6.343079%, 6.881714%)" offset="0.171875"/><stop stop-opacity="1" stop-color="rgb(6.556702%, 6.486511%, 7.037354%)" offset="0.175781"/><stop stop-opacity="1" stop-color="rgb(6.70166%, 6.628418%, 7.191467%)" offset="0.179688"/><stop stop-opacity="1" stop-color="rgb(6.845093%, 6.771851%, 7.347107%)" offset="0.183594"/><stop stop-opacity="1" stop-color="rgb(6.990051%, 6.913757%, 7.501221%)" offset="0.1875"/><stop stop-opacity="1" stop-color="rgb(7.133484%, 7.05719%, 7.655334%)" offset="0.191406"/><stop stop-opacity="1" stop-color="rgb(7.278442%, 7.199097%, 7.810974%)" offset="0.195312"/><stop stop-opacity="1" stop-color="rgb(7.421875%, 7.341003%, 7.965088%)" offset="0.199219"/><stop stop-opacity="1" stop-color="rgb(7.566833%, 7.484436%, 8.119202%)" offset="0.203125"/><stop stop-opacity="1" stop-color="rgb(7.710266%, 7.626343%, 8.274841%)" offset="0.207031"/><stop stop-opacity="1" stop-color="rgb(7.855225%, 7.769775%, 8.428955%)" offset="0.210938"/><stop stop-opacity="1" stop-color="rgb(7.998657%, 7.911682%, 8.584595%)" offset="0.214844"/><stop stop-opacity="1" stop-color="rgb(8.14209%, 8.055115%, 8.738708%)" offset="0.21875"/><stop stop-opacity="1" stop-color="rgb(8.287048%, 8.197021%, 8.892822%)" offset="0.222656"/><stop stop-opacity="1" stop-color="rgb(8.430481%, 8.338928%, 9.048462%)" offset="0.226562"/><stop stop-opacity="1" stop-color="rgb(8.575439%, 8.482361%, 9.202576%)" offset="0.230469"/><stop stop-opacity="1" stop-color="rgb(8.718872%, 8.624268%, 9.356689%)" offset="0.234375"/><stop stop-opacity="1" stop-color="rgb(8.863831%, 8.7677%, 9.512329%)" offset="0.238281"/><stop stop-opacity="1" stop-color="rgb(9.007263%, 8.909607%, 9.666443%)" offset="0.242188"/><stop stop-opacity="1" stop-color="rgb(9.152222%, 9.05304%, 9.822083%)" offset="0.246094"/><stop stop-opacity="1" stop-color="rgb(9.295654%, 9.194946%, 9.976196%)" offset="0.25"/><stop stop-opacity="1" stop-color="rgb(9.512329%, 9.408569%, 10.20813%)" offset="0.253906"/><stop stop-opacity="1" stop-color="rgb(9.80072%, 9.693909%, 10.517883%)" offset="0.261719"/><stop stop-opacity="1" stop-color="rgb(10.089111%, 9.979248%, 10.826111%)" offset="0.269531"/><stop stop-opacity="1" stop-color="rgb(10.375977%, 10.264587%, 11.135864%)" offset="0.277344"/><stop stop-opacity="1" stop-color="rgb(10.664368%, 10.549927%, 11.445618%)" offset="0.285156"/><stop stop-opacity="1" stop-color="rgb(10.952759%, 10.835266%, 11.755371%)" offset="0.292969"/><stop stop-opacity="1" stop-color="rgb(11.24115%, 11.11908%, 12.063599%)" offset="0.300781"/><stop stop-opacity="1" stop-color="rgb(11.529541%, 11.404419%, 12.373352%)" offset="0.308594"/><stop stop-opacity="1" stop-color="rgb(11.817932%, 11.689758%, 12.683105%)" offset="0.316406"/><stop stop-opacity="1" stop-color="rgb(12.106323%, 11.975098%, 12.992859%)" offset="0.324219"/><stop stop-opacity="1" stop-color="rgb(12.394714%, 12.260437%, 13.301086%)" offset="0.332031"/><stop stop-opacity="1" stop-color="rgb(12.683105%, 12.545776%, 13.61084%)" offset="0.339844"/><stop stop-opacity="1" stop-color="rgb(12.971497%, 12.831116%, 13.920593%)" offset="0.347656"/><stop stop-opacity="1" stop-color="rgb(13.259888%, 13.116455%, 14.230347%)" offset="0.355469"/><stop stop-opacity="1" stop-color="rgb(13.548279%, 13.400269%, 14.538574%)" offset="0.363281"/><stop stop-opacity="1" stop-color="rgb(13.83667%, 13.685608%, 14.848328%)" offset="0.371094"/><stop stop-opacity="1" stop-color="rgb(14.125061%, 13.970947%, 15.158081%)" offset="0.378906"/><stop stop-opacity="1" stop-color="rgb(14.411926%, 14.256287%, 15.467834%)" offset="0.386719"/><stop stop-opacity="1" stop-color="rgb(14.700317%, 14.541626%, 15.776062%)" offset="0.394531"/><stop stop-opacity="1" stop-color="rgb(14.988708%, 14.826965%, 16.085815%)" offset="0.402344"/><stop stop-opacity="1" stop-color="rgb(15.2771%, 15.112305%, 16.395569%)" offset="0.410156"/><stop stop-opacity="1" stop-color="rgb(15.565491%, 15.397644%, 16.705322%)" offset="0.417969"/><stop stop-opacity="1" stop-color="rgb(15.853882%, 15.681458%, 17.01355%)" offset="0.425781"/><stop stop-opacity="1" stop-color="rgb(16.142273%, 15.966797%, 17.323303%)" offset="0.433594"/><stop stop-opacity="1" stop-color="rgb(16.430664%, 16.252136%, 17.633057%)" offset="0.441406"/><stop stop-opacity="1" stop-color="rgb(16.719055%, 16.537476%, 17.94281%)" offset="0.449219"/><stop stop-opacity="1" stop-color="rgb(17.007446%, 16.822815%, 18.251038%)" offset="0.457031"/><stop stop-opacity="1" stop-color="rgb(17.295837%, 17.108154%, 18.560791%)" offset="0.464844"/><stop stop-opacity="1" stop-color="rgb(17.584229%, 17.393494%, 18.870544%)" offset="0.472656"/><stop stop-opacity="1" stop-color="rgb(17.87262%, 17.678833%, 19.180298%)" offset="0.480469"/><stop stop-opacity="1" stop-color="rgb(18.161011%, 17.964172%, 19.490051%)" offset="0.488281"/><stop stop-opacity="1" stop-color="rgb(18.447876%, 18.247986%, 19.798279%)" offset="0.496094"/><stop stop-opacity="1" stop-color="rgb(18.664551%, 18.463135%, 20.030212%)" offset="0.503906"/><stop stop-opacity="1" stop-color="rgb(18.809509%, 18.605042%, 20.185852%)" offset="0.507812"/><stop stop-opacity="1" stop-color="rgb(18.952942%, 18.748474%, 20.339966%)" offset="0.511719"/><stop stop-opacity="1" stop-color="rgb(19.0979%, 18.890381%, 20.495605%)" offset="0.515625"/><stop stop-opacity="1" stop-color="rgb(19.241333%, 19.032288%, 20.649719%)" offset="0.519531"/><stop stop-opacity="1" stop-color="rgb(19.386292%, 19.17572%, 20.803833%)" offset="0.523438"/><stop stop-opacity="1" stop-color="rgb(19.529724%, 19.317627%, 20.959473%)" offset="0.527344"/><stop stop-opacity="1" stop-color="rgb(19.674683%, 19.46106%, 21.113586%)" offset="0.53125"/><stop stop-opacity="1" stop-color="rgb(19.818115%, 19.602966%, 21.2677%)" offset="0.535156"/><stop stop-opacity="1" stop-color="rgb(19.963074%, 19.746399%, 21.42334%)" offset="0.539062"/><stop stop-opacity="1" stop-color="rgb(20.106506%, 19.888306%, 21.577454%)" offset="0.542969"/><stop stop-opacity="1" stop-color="rgb(20.249939%, 20.031738%, 21.733093%)" offset="0.546875"/><stop stop-opacity="1" stop-color="rgb(20.394897%, 20.173645%, 21.887207%)" offset="0.550781"/><stop stop-opacity="1" stop-color="rgb(20.53833%, 20.315552%, 22.041321%)" offset="0.554688"/><stop stop-opacity="1" stop-color="rgb(20.683289%, 20.458984%, 22.19696%)" offset="0.558594"/><stop stop-opacity="1" stop-color="rgb(20.826721%, 20.600891%, 22.351074%)" offset="0.5625"/><stop stop-opacity="1" stop-color="rgb(20.97168%, 20.744324%, 22.505188%)" offset="0.566406"/><stop stop-opacity="1" stop-color="rgb(21.115112%, 20.88623%, 22.660828%)" offset="0.570312"/><stop stop-opacity="1" stop-color="rgb(21.260071%, 21.029663%, 22.814941%)" offset="0.574219"/><stop stop-opacity="1" stop-color="rgb(21.403503%, 21.17157%, 22.970581%)" offset="0.578125"/><stop stop-opacity="1" stop-color="rgb(21.548462%, 21.315002%, 23.124695%)" offset="0.582031"/><stop stop-opacity="1" stop-color="rgb(21.691895%, 21.456909%, 23.278809%)" offset="0.585938"/><stop stop-opacity="1" stop-color="rgb(21.836853%, 21.598816%, 23.434448%)" offset="0.589844"/><stop stop-opacity="1" stop-color="rgb(21.980286%, 21.742249%, 23.588562%)" offset="0.59375"/><stop stop-opacity="1" stop-color="rgb(22.123718%, 21.884155%, 23.742676%)" offset="0.597656"/><stop stop-opacity="1" stop-color="rgb(22.268677%, 22.027588%, 23.898315%)" offset="0.601562"/><stop stop-opacity="1" stop-color="rgb(22.412109%, 22.169495%, 24.052429%)" offset="0.605469"/><stop stop-opacity="1" stop-color="rgb(22.557068%, 22.312927%, 24.208069%)" offset="0.609375"/><stop stop-opacity="1" stop-color="rgb(22.7005%, 22.454834%, 24.362183%)" offset="0.613281"/><stop stop-opacity="1" stop-color="rgb(22.845459%, 22.596741%, 24.516296%)" offset="0.617188"/><stop stop-opacity="1" stop-color="rgb(22.988892%, 22.740173%, 24.671936%)" offset="0.621094"/><stop stop-opacity="1" stop-color="rgb(23.13385%, 22.88208%, 24.82605%)" offset="0.625"/><stop stop-opacity="1" stop-color="rgb(23.348999%, 23.095703%, 25.057983%)" offset="0.628906"/><stop stop-opacity="1" stop-color="rgb(23.63739%, 23.381042%, 25.367737%)" offset="0.636719"/><stop stop-opacity="1" stop-color="rgb(23.925781%, 23.666382%, 25.67749%)" offset="0.644531"/><stop stop-opacity="1" stop-color="rgb(24.214172%, 23.951721%, 25.985718%)" offset="0.652344"/><stop stop-opacity="1" stop-color="rgb(24.502563%, 24.237061%, 26.295471%)" offset="0.660156"/><stop stop-opacity="1" stop-color="rgb(24.790955%, 24.5224%, 26.605225%)" offset="0.667969"/><stop stop-opacity="1" stop-color="rgb(25.079346%, 24.807739%, 26.914978%)" offset="0.675781"/><stop stop-opacity="1" stop-color="rgb(25.367737%, 25.093079%, 27.223206%)" offset="0.683594"/><stop stop-opacity="1" stop-color="rgb(25.656128%, 25.376892%, 27.532959%)" offset="0.691406"/><stop stop-opacity="1" stop-color="rgb(25.944519%, 25.662231%, 27.842712%)" offset="0.699219"/><stop stop-opacity="1" stop-color="rgb(26.231384%, 25.947571%, 28.152466%)" offset="0.707031"/><stop stop-opacity="1" stop-color="rgb(26.519775%, 26.23291%, 28.460693%)" offset="0.714844"/><stop stop-opacity="1" stop-color="rgb(26.808167%, 26.51825%, 28.770447%)" offset="0.722656"/><stop stop-opacity="1" stop-color="rgb(27.096558%, 26.803589%, 29.0802%)" offset="0.730469"/><stop stop-opacity="1" stop-color="rgb(27.384949%, 27.088928%, 29.389954%)" offset="0.738281"/><stop stop-opacity="1" stop-color="rgb(27.67334%, 27.374268%, 29.698181%)" offset="0.746094"/><stop stop-opacity="1" stop-color="rgb(27.890015%, 27.587891%, 29.930115%)" offset="0.753906"/><stop stop-opacity="1" stop-color="rgb(28.034973%, 27.729797%, 30.085754%)" offset="0.757812"/><stop stop-opacity="1" stop-color="rgb(28.178406%, 27.87323%, 30.239868%)" offset="0.761719"/><stop stop-opacity="1" stop-color="rgb(28.321838%, 28.015137%, 30.395508%)" offset="0.765625"/><stop stop-opacity="1" stop-color="rgb(28.466797%, 28.158569%, 30.549622%)" offset="0.769531"/><stop stop-opacity="1" stop-color="rgb(28.610229%, 28.300476%, 30.703735%)" offset="0.773438"/><stop stop-opacity="1" stop-color="rgb(28.755188%, 28.443909%, 30.859375%)" offset="0.777344"/><stop stop-opacity="1" stop-color="rgb(28.898621%, 28.585815%, 31.013489%)" offset="0.78125"/><stop stop-opacity="1" stop-color="rgb(29.043579%, 28.727722%, 31.167603%)" offset="0.785156"/><stop stop-opacity="1" stop-color="rgb(29.187012%, 28.871155%, 31.323242%)" offset="0.789062"/><stop stop-opacity="1" stop-color="rgb(29.33197%, 29.013062%, 31.477356%)" offset="0.792969"/><stop stop-opacity="1" stop-color="rgb(29.475403%, 29.156494%, 31.632996%)" offset="0.796875"/><stop stop-opacity="1" stop-color="rgb(29.620361%, 29.298401%, 31.787109%)" offset="0.800781"/><stop stop-opacity="1" stop-color="rgb(29.763794%, 29.441833%, 31.941223%)" offset="0.804688"/><stop stop-opacity="1" stop-color="rgb(29.908752%, 29.58374%, 32.096863%)" offset="0.808594"/><stop stop-opacity="1" stop-color="rgb(30.052185%, 29.725647%, 32.250977%)" offset="0.8125"/><stop stop-opacity="1" stop-color="rgb(30.267334%, 29.93927%, 32.48291%)" offset="0.816406"/><stop stop-opacity="1" stop-color="rgb(30.555725%, 30.224609%, 32.792664%)" offset="0.824219"/><stop stop-opacity="1" stop-color="rgb(30.844116%, 30.509949%, 33.102417%)" offset="0.832031"/><stop stop-opacity="1" stop-color="rgb(31.132507%, 30.795288%, 33.410645%)" offset="0.839844"/><stop stop-opacity="1" stop-color="rgb(31.420898%, 31.080627%, 33.720398%)" offset="0.847656"/><stop stop-opacity="1" stop-color="rgb(31.70929%, 31.365967%, 34.030151%)" offset="0.855469"/><stop stop-opacity="1" stop-color="rgb(31.997681%, 31.651306%, 34.339905%)" offset="0.863281"/><stop stop-opacity="1" stop-color="rgb(32.286072%, 31.936646%, 34.648132%)" offset="0.871094"/><stop stop-opacity="1" stop-color="rgb(32.502747%, 32.150269%, 34.880066%)" offset="0.878906"/><stop stop-opacity="1" stop-color="rgb(32.646179%, 32.292175%, 35.035706%)" offset="0.882812"/><stop stop-opacity="1" stop-color="rgb(32.791138%, 32.435608%, 35.189819%)" offset="0.886719"/><stop stop-opacity="1" stop-color="rgb(32.93457%, 32.577515%, 35.345459%)" offset="0.890625"/><stop stop-opacity="1" stop-color="rgb(33.079529%, 32.720947%, 35.499573%)" offset="0.894531"/><stop stop-opacity="1" stop-color="rgb(33.222961%, 32.862854%, 35.653687%)" offset="0.898438"/><stop stop-opacity="1" stop-color="rgb(33.36792%, 33.006287%, 35.809326%)" offset="0.902344"/><stop stop-opacity="1" stop-color="rgb(33.511353%, 33.148193%, 35.96344%)" offset="0.90625"/><stop stop-opacity="1" stop-color="rgb(33.728027%, 33.361816%, 36.195374%)" offset="0.910156"/><stop stop-opacity="1" stop-color="rgb(34.016418%, 33.647156%, 36.505127%)" offset="0.917969"/><stop stop-opacity="1" stop-color="rgb(34.303284%, 33.932495%, 36.81488%)" offset="0.925781"/><stop stop-opacity="1" stop-color="rgb(34.591675%, 34.217834%, 37.123108%)" offset="0.933594"/><stop stop-opacity="1" stop-color="rgb(34.80835%, 34.431458%, 37.355042%)" offset="0.941406"/><stop stop-opacity="1" stop-color="rgb(34.953308%, 34.573364%, 37.510681%)" offset="0.945312"/><stop stop-opacity="1" stop-color="rgb(35.096741%, 34.716797%, 37.664795%)" offset="0.949219"/><stop stop-opacity="1" stop-color="rgb(35.241699%, 34.858704%, 37.820435%)" offset="0.953125"/><stop stop-opacity="1" stop-color="rgb(35.456848%, 35.072327%, 38.052368%)" offset="0.957031"/><stop stop-opacity="1" stop-color="rgb(35.745239%, 35.357666%, 38.360596%)" offset="0.964844"/><stop stop-opacity="1" stop-color="rgb(35.961914%, 35.572815%, 38.594055%)" offset="0.972656"/><stop stop-opacity="1" stop-color="rgb(36.106873%, 35.714722%, 38.748169%)" offset="0.976562"/><stop stop-opacity="1" stop-color="rgb(36.322021%, 35.928345%, 38.980103%)" offset="0.980469"/><stop stop-opacity="1" stop-color="rgb(36.538696%, 36.141968%, 39.212036%)" offset="0.988281"/><stop stop-opacity="1" stop-color="rgb(36.753845%, 36.355591%, 39.44397%)" offset="0.992188"/><stop stop-opacity="1" stop-color="rgb(36.898804%, 36.499023%, 39.599609%)" offset="1"/></radialGradient><clipPath id="3078e1dbf5"><path d="M 185 62.539062 L 228 62.539062 L 228 104 L 185 104 Z M 185 62.539062 " clip-rule="nonzero"/></clipPath><clipPath id="9a9326d2f7"><path d="M 215 230 L 336 230 L 336 352 L 215 352 Z M 215 230 " clip-rule="nonzero"/></clipPath><clipPath id="aa0f1fa7e4"><path d="M 191.414062 275.296875 L 291.113281 206.824219 L 359.585938 306.523438 L 259.886719 374.996094 Z M 191.414062 275.296875 " clip-rule="nonzero"/></clipPath><clipPath id="f62bd645d3"><path d="M 241.265625 241.0625 C 213.734375 259.96875 206.742188 297.617188 225.652344 325.148438 C 244.558594 352.675781 282.207031 359.667969 309.738281 340.757812 C 337.269531 321.851562 344.257812 284.203125 325.351562 256.671875 C 306.441406 229.140625 268.796875 222.152344 241.265625 241.0625 Z M 241.265625 241.0625 " clip-rule="nonzero"/></clipPath><clipPath id="93cf69d1af"><path d="M 184 219 L 251 219 L 251 287 L 184 287 Z M 184 219 " clip-rule="nonzero"/></clipPath><clipPath id="0a777999d4"><path d="M 171.257812 244.511719 L 226.132812 206.824219 L 263.824219 261.703125 L 208.945312 299.390625 Z M 171.257812 244.511719 " clip-rule="nonzero"/></clipPath><clipPath id="2a68d9f6ce"><path d="M 198.695312 225.667969 C 183.542969 236.078125 179.695312 256.796875 190.101562 271.953125 C 200.507812 287.105469 221.230469 290.953125 236.382812 280.546875 C 251.539062 270.136719 255.386719 249.417969 244.976562 234.261719 C 234.570312 219.109375 213.847656 215.261719 198.695312 225.667969 Z M 198.695312 225.667969 " clip-rule="nonzero"/></clipPath><clipPath id="fce7a457a2"><path d="M 210 304 L 278 304 L 278 371 L 210 371 Z M 210 304 " clip-rule="nonzero"/></clipPath><clipPath id="27476743b5"><path d="M 197.917969 328.902344 L 252.796875 291.214844 L 290.484375 346.089844 L 235.609375 383.78125 Z M 197.917969 328.902344 " clip-rule="nonzero"/></clipPath><clipPath id="90bf0920f6"><path d="M 225.355469 310.058594 C 210.203125 320.464844 206.355469 341.1875 216.761719 356.339844 C 227.171875 371.496094 247.894531 375.34375 263.046875 364.933594 C 278.199219 354.527344 282.046875 333.804688 271.640625 318.652344 C 261.234375 303.496094 240.511719 299.648438 225.355469 310.058594 Z M 225.355469 310.058594 " clip-rule="nonzero"/></clipPath><clipPath id="4eb128fbbc"><path d="M 133 255 L 233 255 L 233 356 L 133 356 Z M 133 255 " clip-rule="nonzero"/></clipPath><clipPath id="4160ea8dbe"><path d="M 113.554688 292.683594 L 195.871094 236.148438 L 252.40625 318.464844 L 170.089844 375 Z M 113.554688 292.683594 " clip-rule="nonzero"/></clipPath><clipPath id="706fec777d"><path d="M 154.714844 264.414062 C 131.984375 280.027344 126.210938 311.109375 141.824219 333.839844 C 157.433594 356.570312 188.515625 362.34375 211.246094 346.730469 C 233.976562 331.121094 239.75 300.039062 224.136719 277.304688 C 208.527344 254.574219 177.445312 248.804688 154.714844 264.414062 Z M 154.714844 264.414062 " clip-rule="nonzero"/></clipPath><clipPath id="044ab2edf7"><path d="M 103 272 L 170 272 L 170 339 L 103 339 Z M 103 272 " clip-rule="nonzero"/></clipPath><clipPath id="1b8a7fe476"><path d="M 90.414062 296.976562 L 145.292969 259.289062 L 182.980469 314.164062 L 128.105469 351.855469 Z M 90.414062 296.976562 " clip-rule="nonzero"/></clipPath><clipPath id="95cb485e2f"><path d="M 117.855469 278.132812 C 102.699219 288.539062 98.851562 309.261719 109.261719 324.414062 C 119.667969 339.570312 140.390625 343.417969 155.542969 333.011719 C 170.695312 322.601562 174.542969 301.878906 164.136719 286.726562 C 153.730469 271.574219 133.007812 267.726562 117.855469 278.132812 Z M 117.855469 278.132812 " clip-rule="nonzero"/></clipPath><clipPath id="31afefda47"><path d="M 291 225 L 358 225 L 358 293 L 291 293 Z M 291 225 " clip-rule="nonzero"/></clipPath><clipPath id="47f1d14866"><path d="M 278.074219 250.695312 L 332.949219 213.003906 L 370.640625 267.882812 L 315.761719 305.570312 Z M 278.074219 250.695312 " clip-rule="nonzero"/></clipPath><clipPath id="cc70f06d10"><path d="M 305.511719 231.847656 C 290.359375 242.257812 286.511719 262.980469 296.917969 278.132812 C 307.324219 293.285156 328.046875 297.132812 343.199219 286.726562 C 358.355469 276.320312 362.203125 255.597656 351.792969 240.445312 C 341.386719 225.289062 320.664062 221.441406 305.511719 231.847656 Z M 305.511719 231.847656 " clip-rule="nonzero"/></clipPath><clipPath id="7d1c969c8d"><path d="M 88 299 L 134 299 L 134 345 L 88 345 Z M 88 299 " clip-rule="nonzero"/></clipPath><clipPath id="cd82843dc6"><path d="M 79.738281 316.3125 L 116.722656 290.910156 L 142.121094 327.894531 L 105.136719 353.296875 Z M 79.738281 316.3125 " clip-rule="nonzero"/></clipPath><clipPath id="50640b9fc8"><path d="M 98.230469 303.613281 C 88.015625 310.625 85.421875 324.589844 92.4375 334.804688 C 99.449219 345.015625 113.417969 347.609375 123.628906 340.597656 C 133.84375 333.582031 136.433594 319.617188 129.421875 309.402344 C 122.40625 299.191406 108.441406 296.597656 98.230469 303.613281 Z M 98.230469 303.613281 " clip-rule="nonzero"/></clipPath></defs><g clip-path="url(#f22f766cc3)"><g clip-path="url(#974a994388)"><path fill="url(#88741a750f)" d="M 32.085938 31.394531 L 32.085938 343.605469 L 344.296875 343.605469 L 344.296875 31.394531 Z M 32.085938 31.394531 " fill-rule="nonzero"/></g></g><path fill="#fcf4d7" d="M 302.113281 239.757812 C 300.003906 237.140625 296.5 236.097656 293.308594 237.132812 C 274.933594 243.101562 255.234375 243.9375 236.320312 239.558594 C 178.90625 226.277344 143 168.765625 156.28125 111.347656 C 158.738281 100.722656 162.757812 90.605469 168.230469 81.292969 C 169.941406 78.398438 169.671875 74.746094 167.5625 72.128906 C 165.464844 69.511719 161.964844 68.464844 158.757812 69.503906 C 138.921875 75.941406 120.914062 87.402344 106.675781 102.632812 C 91.992188 118.34375 81.65625 137.78125 76.78125 158.84375 C 61.488281 224.945312 102.828125 291.175781 168.925781 306.464844 C 194.972656 312.484375 221.644531 310.007812 246.058594 299.28125 C 269.660156 288.925781 289.796875 271.039062 302.777344 248.921875 C 304.480469 246.027344 304.210938 242.375 302.113281 239.757812 " fill-opacity="1" fill-rule="nonzero"/><path fill="#fcf4d7" d="M 271.507812 141.054688 C 270.683594 138.179688 268.148438 136.132812 265.152344 135.921875 L 246.417969 134.660156 L 239.714844 117.625 C 238.648438 114.910156 236.023438 113.121094 233.097656 113.121094 C 230.164062 113.121094 227.546875 114.910156 226.472656 117.625 L 219.765625 134.660156 L 201.03125 135.921875 C 198.046875 136.132812 195.5 138.179688 194.675781 141.054688 C 193.847656 143.929688 194.902344 147.027344 197.332031 148.785156 L 212.253906 159.628906 L 206.78125 178.253906 C 205.925781 181.179688 207.019531 184.324219 209.507812 186.085938 C 211.996094 187.835938 215.328125 187.816406 217.796875 186.023438 L 233.097656 174.914062 L 248.386719 186.023438 C 249.640625 186.929688 251.105469 187.386719 252.578125 187.386719 C 254.007812 187.386719 255.441406 186.949219 256.675781 186.085938 C 259.164062 184.324219 260.257812 181.179688 259.402344 178.253906 L 253.929688 159.628906 L 268.851562 148.785156 C 271.28125 147.027344 272.335938 143.929688 271.507812 141.054688 " fill-opacity="1" fill-rule="nonzero"/><g clip-path="url(#3078e1dbf5)"><path fill="#fcf4d7" d="M 227.59375 77.882812 C 227.136719 76.300781 225.746094 75.175781 224.101562 75.054688 L 213.804688 74.371094 L 210.125 65.015625 C 209.539062 63.519531 208.097656 62.535156 206.492188 62.535156 C 204.882812 62.535156 203.449219 63.519531 202.851562 65.015625 L 199.171875 74.371094 L 188.882812 75.054688 C 187.242188 75.175781 185.851562 76.300781 185.390625 77.882812 C 184.933594 79.464844 185.523438 81.15625 186.855469 82.121094 L 195.054688 88.078125 L 192.039062 98.304688 C 191.570312 99.90625 192.175781 101.640625 193.539062 102.605469 C 194.914062 103.570312 196.734375 103.550781 198.097656 102.574219 L 206.492188 96.464844 L 214.902344 102.574219 C 215.578125 103.070312 216.382812 103.320312 217.199219 103.320312 C 217.976562 103.320312 218.769531 103.082031 219.449219 102.605469 C 220.808594 101.640625 221.417969 99.90625 220.941406 98.304688 L 217.933594 88.078125 L 226.132812 82.121094 C 227.464844 81.15625 228.054688 79.464844 227.59375 77.882812 " fill-opacity="1" fill-rule="nonzero"/></g><path fill="#fcf4d7" d="M 303.792969 115.566406 C 303.515625 114.582031 302.648438 113.875 301.625 113.804688 L 295.21875 113.378906 L 292.929688 107.558594 C 292.5625 106.625 291.664062 106.015625 290.671875 106.015625 C 289.664062 106.015625 288.769531 106.625 288.402344 107.558594 L 286.113281 113.378906 L 279.71875 113.804688 C 278.691406 113.875 277.816406 114.582031 277.539062 115.566406 C 277.25 116.542969 277.617188 117.605469 278.445312 118.203125 L 283.546875 121.90625 L 281.675781 128.28125 C 281.378906 129.277344 281.757812 130.351562 282.613281 130.949219 C 283.457031 131.554688 284.601562 131.546875 285.4375 130.929688 L 290.671875 127.128906 L 295.894531 130.929688 C 296.320312 131.238281 296.820312 131.394531 297.328125 131.394531 C 297.8125 131.394531 298.3125 131.246094 298.730469 130.949219 C 299.574219 130.351562 299.953125 129.277344 299.664062 128.28125 L 297.785156 121.90625 L 302.886719 118.203125 C 303.714844 117.605469 304.082031 116.542969 303.792969 115.566406 " fill-opacity="1" fill-rule="nonzero"/><g clip-path="url(#9a9326d2f7)"><g clip-path="url(#aa0f1fa7e4)"><g clip-path="url(#f62bd645d3)"><path fill="#ececec" d="M 191.414062 275.296875 L 291.113281 206.824219 L 359.585938 306.523438 L 259.886719 374.996094 Z M 191.414062 275.296875 " fill-opacity="1" fill-rule="nonzero"/></g></g></g><g clip-path="url(#93cf69d1af)"><g clip-path="url(#0a777999d4)"><g clip-path="url(#2a68d9f6ce)"><path fill="#ececec" d="M 171.257812 244.511719 L 226.132812 206.824219 L 263.824219 261.703125 L 208.945312 299.390625 Z M 171.257812 244.511719 " fill-opacity="1" fill-rule="nonzero"/></g></g></g><g clip-path="url(#fce7a457a2)"><g clip-path="url(#27476743b5)"><g clip-path="url(#90bf0920f6)"><path fill="#ececec" d="M 197.917969 328.902344 L 252.796875 291.214844 L 290.484375 346.089844 L 235.609375 383.78125 Z M 197.917969 328.902344 " fill-opacity="1" fill-rule="nonzero"/></g></g></g><g clip-path="url(#4eb128fbbc)"><g clip-path="url(#4160ea8dbe)"><g clip-path="url(#706fec777d)"><path fill="#ececec" d="M 113.554688 292.683594 L 195.871094 236.148438 L 252.40625 318.464844 L 170.089844 375 Z M 113.554688 292.683594 " fill-opacity="1" fill-rule="nonzero"/></g></g></g><g clip-path="url(#044ab2edf7)"><g clip-path="url(#1b8a7fe476)"><g clip-path="url(#95cb485e2f)"><path fill="#ececec" d="M 90.414062 296.976562 L 145.292969 259.289062 L 182.980469 314.164062 L 128.105469 351.855469 Z M 90.414062 296.976562 " fill-opacity="1" fill-rule="nonzero"/></g></g></g><g clip-path="url(#31afefda47)"><g clip-path="url(#47f1d14866)"><g clip-path="url(#cc70f06d10)"><path fill="#ececec" d="M 278.074219 250.695312 L 332.949219 213.003906 L 370.640625 267.882812 L 315.761719 305.570312 Z M 278.074219 250.695312 " fill-opacity="1" fill-rule="nonzero"/></g></g></g><g clip-path="url(#7d1c969c8d)"><g clip-path="url(#cd82843dc6)"><g clip-path="url(#50640b9fc8)"><path fill="#ececec" d="M 79.738281 316.3125 L 116.722656 290.910156 L 142.121094 327.894531 L 105.136719 353.296875 Z M 79.738281 316.3125 " fill-opacity="1" fill-rule="nonzero"/></g></g></g></svg>